<svg class="svg-icon" style="width: 1em; height: 1em;vertical-align: middle;fill: currentColor;overflow: hidden;" viewBox="0 0 1024 1024" version="1.1" xmlns="http://www.w3.org/2000/svg"><path d="M533.333333 1023.99998a21.266666 21.266666 0 0 1-15.086666-6.246667l-85.333332-85.333331a21.333333 21.333333 0 0 1 30.173333-30.173333l48.913332 48.919999V789.333318a21.333333 21.333333 0 0 1 42.666666 0v161.83333l48.913332-48.919999a21.333333 21.333333 0 0 1 30.173333 30.173333l-85.333332 85.333331A21.266666 21.266666 0 0 1 533.333333 1023.99998z m426.666658-298.666661H106.666675a21.333333 21.333333 0 0 1 0-42.666666h853.333316a21.333333 21.333333 0 0 1 0 42.666666z m0-170.666663H106.666675a21.333333 21.333333 0 0 1 0-42.666666h853.333316a21.333333 21.333333 0 0 1 0 42.666666z m0-170.666663H106.666675a21.333333 21.333333 0 0 1 0-42.666666h853.333316a21.333333 21.333333 0 0 1 0 42.666666zM533.333333 298.666661a21.333333 21.333333 0 0 1-21.333333-21.333333V115.499998l-48.913332 48.919999a21.333333 21.333333 0 0 1-30.173333-30.173333l85.333332-85.333332a21.333333 21.333333 0 0 1 30.173332 0l85.333332 85.333332a21.333333 21.333333 0 0 1-30.173333 30.173333L554.666666 115.499998V277.333328a21.333333 21.333333 0 0 1-21.333333 21.333333z" fill="#5C5C66" /></svg>